<?xml version="1.0" standalone="no"?>
<!DOCTYPE svg PUBLIC "-//W3C//DTD SVG 20010904//EN"
 "http://www.w3.org/TR/2001/REC-SVG-20010904/DTD/svg10.dtd">
<svg version="1.0" xmlns="http://www.w3.org/2000/svg"
 width="100.000000pt" height="100.000000pt" viewBox="0 0 100.000000 100.000000"
 preserveAspectRatio="xMidYMid meet">
<metadata>
Created by potrace 1.10, written by Peter Selinger 2001-2011
</metadata>
<g transform="translate(0.000000,100.000000) scale(0.100000,-0.100000)"
fill="#000000" stroke="none">
<path d="M415 700 l-90 -90 36 0 c31 0 44 9 94 61 l58 61 61 -61 c45 -45 69
-61 89 -61 15 0 27 2 27 4 0 5 -170 170 -178 174 -4 1 -48 -38 -97 -88z"/>
<path d="M50 495 c0 -101 1 -105 21 -105 21 0 22 3 15 70 -4 45 -2 70 4 70 5
0 10 -4 10 -8 0 -20 81 -132 95 -132 12 0 15 18 15 105 0 85 -3 105 -15 105
-11 0 -15 -18 -17 -77 l-3 -78 -34 60 c-73 132 -91 130 -91 -10z"/>
<path d="M295 589 c-35 -20 -45 -41 -45 -96 0 -44 5 -59 25 -78 35 -36 89 -29
122 14 22 28 16 107 -9 135 -27 30 -65 40 -93 25z m65 -34 c15 -18 26 -105 13
-105 -5 0 -14 5 -21 12 -14 14 -45 -9 -38 -29 8 -20 -12 -15 -24 6 -36 68 25
170 70 116z"/>
<path d="M469 571 c-61 -61 -26 -180 54 -181 32 0 76 39 78 70 5 70 0 90 -26
115 -33 33 -70 32 -106 -4z m83 -18 c11 -10 18 -30 18 -55 0 -34 -3 -39 -19
-33 -20 6 -46 -18 -36 -35 3 -5 2 -10 -3 -10 -35 0 -48 113 -16 137 23 17 34
16 56 -4z"/>
<path d="M765 590 c-3 -5 -3 -37 1 -70 4 -33 3 -60 -2 -60 -5 1 -25 29 -45 63
-24 41 -44 63 -58 65 -20 3 -21 0 -21 -98 0 -91 2 -101 18 -98 15 3 17 13 14
71 -2 37 0 67 5 67 4 0 26 -32 47 -70 26 -47 46 -70 58 -70 16 0 18 10 18 105
0 85 -3 105 -14 105 -8 0 -18 -4 -21 -10z"/>
<path d="M840 493 l0 -103 70 0 c54 0 70 3 70 14 0 11 -15 16 -52 18 -50 3
-52 4 -53 33 0 29 1 29 43 27 33 -3 42 0 42 12 0 12 -11 16 -46 16 -44 0 -45
1 -42 28 3 26 5 27 56 24 48 -4 53 -2 50 14 -3 16 -13 18 -71 19 l-67 0 0
-102z"/>
<path d="M330 376 c0 -7 171 -171 182 -175 10 -3 178 157 178 171 0 4 -15 5
-32 2 -22 -4 -53 -26 -91 -63 l-57 -56 -53 56 c-40 42 -62 57 -90 62 -20 3
-37 4 -37 3z"/>
</g>
</svg>
