<?xml version="1.0" standalone="no"?>
<!DOCTYPE svg PUBLIC "-//W3C//DTD SVG 20010904//EN"
 "http://www.w3.org/TR/2001/REC-SVG-20010904/DTD/svg10.dtd">
<svg version="1.0" xmlns="http://www.w3.org/2000/svg"
 width="900.000000pt" height="573.000000pt" viewBox="0 0 900.000000 573.000000"
 preserveAspectRatio="xMidYMid meet">
<metadata>
Created by potrace 1.10, written by Peter Selinger 2001-2011
</metadata>
<g transform="translate(0.000000,573.000000) scale(0.100000,-0.100000)"
fill="#000000" stroke="none">
<path d="M4420 5715 c0 -8 -8 -15 -18 -15 -11 0 -27 -9 -37 -20 -10 -11 -22
-20 -27 -20 -4 0 -371 -363 -815 -806 -614 -614 -804 -810 -797 -821 7 -12 59
-14 309 -13 l299 1 36 33 c32 31 975 973 989 988 29 33 111 98 124 98 8 0 258
-242 555 -537 297 -296 552 -548 567 -561 27 -22 28 -22 338 -20 202 2 312 7
314 13 2 6 -281 294 -627 640 -347 347 -711 710 -808 807 -97 98 -181 178
-187 178 -14 1 -65 47 -65 60 0 6 -29 10 -75 10 -60 0 -75 -3 -75 -15z"/>
<path d="M2493 3833 c-28 -2 -57 -11 -63 -18 -7 -8 -21 -15 -31 -15 -23 0 -95
-36 -132 -67 -16 -13 -34 -23 -40 -23 -13 0 -167 -160 -167 -173 0 -5 -13 -26
-30 -47 -16 -21 -30 -42 -30 -48 0 -6 -6 -23 -14 -39 -32 -63 -76 -200 -76
-235 0 -15 -7 -53 -15 -85 -21 -80 -21 -390 0 -459 8 -27 15 -63 15 -80 0 -37
27 -125 64 -208 14 -32 26 -62 26 -66 0 -14 69 -111 120 -170 64 -74 234 -190
278 -190 7 0 20 -6 27 -14 33 -33 491 -34 540 -2 13 9 31 16 40 16 18 0 93 40
138 73 50 37 168 151 178 172 14 28 30 55 55 90 33 46 64 124 64 159 0 17 6
40 13 51 7 11 21 63 31 115 15 80 17 131 14 315 -6 241 -24 362 -72 470 -8 17
-21 48 -31 70 -38 89 -197 285 -231 285 -6 0 -17 6 -23 14 -13 16 -133 76
-151 76 -8 0 -21 7 -31 16 -14 12 -53 16 -215 19 -110 1 -222 1 -251 -2z m371
-289 c205 -87 305 -313 305 -694 1 -102 -4 -176 -14 -215 -8 -33 -14 -76 -15
-96 0 -20 -10 -58 -22 -85 l-21 -49 -21 30 c-131 188 -331 219 -476 75 -70
-70 -95 -133 -87 -223 3 -34 9 -74 12 -88 5 -19 2 -28 -10 -33 -23 -9 -127 82
-169 148 -79 124 -96 179 -113 356 -16 178 -16 152 0 350 11 122 20 179 36
220 13 30 26 64 29 75 9 26 83 139 94 143 5 2 30 21 56 41 26 21 58 41 72 45
78 23 99 29 140 36 64 11 113 2 204 -36z"/>
<path d="M4413 3833 c-37 -2 -66 -10 -73 -18 -7 -8 -23 -15 -36 -15 -26 0 -93
-32 -141 -67 -17 -12 -35 -23 -40 -23 -13 0 -103 -96 -155 -165 -43 -57 -108
-181 -108 -208 0 -6 -7 -21 -15 -31 -8 -11 -15 -38 -15 -60 0 -23 -6 -53 -14
-67 -7 -14 -19 -91 -26 -172 -10 -118 -10 -175 0 -299 7 -84 17 -158 21 -164
5 -6 12 -33 15 -60 13 -103 80 -241 176 -363 74 -93 241 -211 301 -211 11 0
28 -6 36 -14 9 -7 54 -18 101 -24 47 -6 100 -14 118 -18 19 -3 43 -2 55 4 12
6 69 13 126 16 72 4 110 11 121 21 9 8 27 15 40 15 28 0 159 79 221 134 26 22
63 61 82 86 45 60 121 203 140 265 51 168 49 149 48 463 0 241 -3 306 -16 341
-8 24 -15 53 -15 65 0 11 -6 32 -13 46 -7 14 -21 48 -31 75 -10 28 -24 57 -30
65 -7 8 -21 33 -31 55 -16 32 -174 205 -188 205 -2 0 -35 20 -73 45 -37 25
-79 45 -91 45 -13 0 -34 7 -47 15 -18 12 -63 16 -202 19 -99 2 -207 2 -241 -1z
m331 -279 c38 -13 77 -31 86 -39 9 -8 21 -15 26 -15 16 0 55 -50 121 -155 32
-51 53 -103 53 -133 0 -18 7 -47 16 -65 25 -48 24 -525 -1 -591 -10 -25 -22
-46 -27 -46 -6 0 -30 18 -55 40 -55 48 -105 65 -193 64 -109 0 -208 -63 -261
-165 -30 -59 -30 -188 0 -247 30 -59 28 -65 -21 -57 -55 9 -133 48 -177 89
-42 39 -121 160 -121 185 0 10 -7 24 -15 31 -8 7 -15 29 -15 49 0 20 -7 56
-16 81 -24 69 -21 479 4 575 10 39 23 80 30 92 7 12 12 32 12 45 0 13 14 41
30 62 17 22 30 45 30 51 0 28 151 145 188 145 9 0 27 6 38 14 11 8 31 16 44
19 48 9 156 -5 224 -29z"/>
<path d="M0 2855 l0 -975 163 2 162 3 3 674 c2 608 4 672 18 667 9 -3 17 -6
20 -6 2 0 15 -24 30 -52 32 -65 39 -77 89 -153 21 -33 47 -74 56 -91 10 -17
45 -70 78 -118 34 -48 61 -89 61 -93 0 -5 50 -87 92 -152 10 -14 21 -33 25
-41 4 -8 25 -42 47 -75 55 -82 65 -97 75 -121 5 -11 20 -33 34 -50 14 -16 36
-49 48 -72 31 -56 37 -66 83 -136 21 -33 41 -67 44 -75 3 -9 22 -37 41 -63
l35 -48 162 0 c138 0 163 2 168 16 3 9 6 442 6 964 0 795 -2 949 -14 959 -9 8
-63 11 -167 9 l-154 -3 -3 -667 c-2 -571 -4 -668 -16 -668 -12 0 -81 101 -136
198 -8 15 -19 29 -23 31 -5 2 -12 13 -17 25 -4 12 -39 69 -76 126 -80 123 -90
138 -103 165 -5 11 -21 37 -35 58 -14 21 -26 40 -26 44 0 3 -13 22 -29 42 -15
20 -36 52 -46 71 -10 19 -24 39 -31 43 -8 4 -14 15 -14 23 0 8 -9 27 -19 42
-31 44 -97 146 -104 162 -4 8 -15 27 -25 41 -9 15 -39 62 -66 105 -26 44 -56
88 -66 99 -10 11 -20 29 -22 40 -3 19 -12 20 -176 23 l-172 2 0 -975z"/>
<path d="M5750 3823 c0 -5 0 -442 -1 -973 l-2 -965 166 -3 c154 -2 167 -1 167
15 1 677 7 1313 13 1319 11 11 41 -9 45 -31 2 -10 29 -54 59 -99 30 -44 59
-90 63 -101 4 -11 33 -57 64 -103 31 -45 56 -86 56 -90 0 -4 15 -29 34 -57 86
-129 134 -204 156 -245 14 -25 36 -61 51 -80 14 -19 38 -57 53 -85 16 -27 36
-59 47 -71 10 -11 19 -25 19 -31 0 -5 14 -29 30 -51 17 -23 30 -45 30 -48 0
-3 14 -23 30 -44 17 -21 30 -43 30 -49 0 -7 9 -24 19 -39 11 -15 31 -46 45
-69 l26 -43 175 0 175 0 0 975 0 975 -159 0 c-90 0 -162 -4 -166 -10 -3 -5 -5
-302 -5 -661 0 -644 -1 -679 -31 -679 -5 0 -20 21 -34 48 -31 57 -34 62 -115
186 -36 54 -77 119 -91 145 -14 25 -43 73 -65 106 -21 33 -47 76 -58 95 -10
19 -31 50 -47 68 -16 18 -29 37 -29 42 0 5 -13 29 -30 53 -16 25 -30 48 -30
52 0 4 -13 24 -28 44 -16 20 -31 43 -35 53 -3 9 -31 53 -61 97 -31 44 -56 86
-56 92 0 5 -15 30 -32 54 -18 24 -53 76 -78 116 -25 39 -51 78 -58 85 -10 11
-52 14 -178 14 -90 0 -164 -3 -164 -7z"/>
<path d="M7705 3818 c-3 -7 -4 -445 -3 -973 l3 -960 625 -3 c344 -1 635 0 648
3 21 5 22 9 22 119 l0 113 -47 13 c-27 7 -65 12 -85 10 -116 -6 -731 -3 -771
4 -38 7 -51 14 -58 33 -10 28 -11 466 0 528 l6 40 395 5 395 5 0 125 0 125
-387 5 c-299 4 -390 8 -400 18 -17 17 -25 463 -9 505 l11 27 455 0 455 0 0
135 0 135 -625 0 c-491 0 -627 -3 -630 -12z"/>
<path d="M2724 1676 c-6 -16 1577 -1607 1643 -1651 56 -39 196 -34 250 7 36
29 183 173 895 885 464 464 744 751 741 759 -7 18 -592 21 -626 3 -12 -7 -265
-255 -562 -552 -297 -297 -550 -546 -563 -555 -23 -15 -33 -5 -582 543 -307
307 -564 562 -572 566 -7 5 -149 9 -316 9 -254 0 -304 -2 -308 -14z"/>
</g>
</svg>
